<svg width="27" height="11" viewBox="0 0 27 11" fill="none" xmlns="http://www.w3.org/2000/svg">
<path d="M7.17478 7.93797C7.0815 7.68651 6.96382 7.42831 6.82176 7.16338C6.67886 6.88248 6.47376 6.48467 6.20646 5.96995C6.06524 5.721 5.95848 5.51831 5.8862 5.36188C5.64408 5.02208 5.42468 4.65707 5.22798 4.26683C5.01615 3.8934 4.85937 3.65328 4.75764 3.54646C4.67188 3.4388 4.55836 3.4127 4.41707 3.46817C4.07225 3.61442 3.66768 3.99612 3.20334 4.61326C2.75414 5.2136 2.33223 6.02879 1.9376 7.05886C1.70868 7.88798 1.41846 8.31175 1.06694 8.33017C1.00303 8.33352 0.905483 8.30659 0.774309 8.24937C0.674254 8.17451 0.620039 8.05718 0.611665 7.8974C0.599105 7.65773 0.695075 7.19608 0.899577 6.51244L1.26306 5.65223C1.46163 5.16117 1.65092 4.79877 1.83093 4.56502C2.12119 3.98904 2.59519 3.40343 3.25294 2.80819C3.91069 2.21295 4.4725 1.92716 4.93837 1.95081C5.21168 1.96853 5.59589 2.42104 6.091 3.30835C6.58528 4.17967 7.1388 5.26419 7.75156 6.5619L8.07433 7.2179C8.12729 7.31126 8.15628 7.40587 8.16131 7.50174C8.17135 7.69348 8.10824 7.86502 7.97198 8.01636C7.85169 8.16686 7.71166 8.2463 7.55188 8.25467C7.36014 8.26472 7.23444 8.15915 7.17478 7.93797ZM12.6809 10.6055C12.3613 10.6222 12.0796 10.5969 11.8357 10.5296C11.6121 10.5413 11.451 10.5257 11.3526 10.4828C11.2702 10.4391 11.1937 10.3549 11.1231 10.2305C11.0197 10.0917 10.9659 9.98236 10.9617 9.90247C10.9567 9.8066 11.0408 9.73009 11.2141 9.67295C11.3865 9.59983 11.6951 9.52757 12.14 9.45619C12.6925 9.29906 13.1912 9.1848 13.6361 9.11342C14.0969 9.0412 14.6469 8.98835 15.2861 8.95485C15.7015 8.93308 15.9824 8.94239 16.1287 8.98279C16.2742 9.00721 16.439 9.09471 16.6231 9.24528C16.8249 9.42696 16.9304 9.60569 16.9396 9.78145C16.9471 9.92525 16.8887 10.0325 16.7642 10.1031C16.6557 10.1728 16.4967 10.1972 16.2873 10.1761L14.7837 10.3751C14.6878 10.3801 14.4254 10.4179 13.9966 10.4884C13.5828 10.5422 13.1442 10.5812 12.6809 10.6055ZM25.6884 6.96771C25.5952 6.71625 25.4775 6.45805 25.3354 6.19312C25.1925 5.91222 24.9874 5.51441 24.7201 4.99969C24.5789 4.75074 24.4721 4.54805 24.3999 4.39162C24.1577 4.05183 23.9383 3.68681 23.7416 3.29657C23.5298 2.92314 23.373 2.68302 23.2713 2.5762C23.1855 2.46854 23.072 2.44244 22.9307 2.49791C22.5859 2.64416 22.1813 3.02586 21.717 3.643C21.2678 4.24334 20.8459 5.05853 20.4513 6.0886C20.2223 6.91772 19.9321 7.34149 19.5806 7.35991C19.5167 7.36326 19.4191 7.33633 19.288 7.27911C19.1879 7.20425 19.1337 7.08692 19.1253 6.92714C19.1128 6.68747 19.2087 6.22582 19.4132 5.54218L19.7767 4.68197C19.9753 4.19091 20.1646 3.82851 20.3446 3.59476C20.6348 3.01878 21.1088 2.43317 21.7666 1.83793C22.4243 1.24269 22.9862 0.9569 23.452 0.98055C23.7253 0.998271 24.1095 1.45078 24.6047 2.33809C25.0989 3.20941 25.6525 4.29393 26.2652 5.59164L26.588 6.24765C26.6409 6.341 26.6699 6.43561 26.675 6.53148C26.685 6.72322 26.6219 6.89476 26.4856 7.0461C26.3653 7.1966 26.2253 7.27604 26.0655 7.28441C25.8738 7.29446 25.7481 7.18889 25.6884 6.96771Z" fill="#FF53CE"/>
</svg>
