<svg width="206" height="37" viewBox="0 0 206 37" fill="none" xmlns="http://www.w3.org/2000/svg">
<path fill-rule="evenodd" clip-rule="evenodd" d="M102.564 23.1856L10.467 27.4892C4.95015 27.747 0.268897 23.4838 0.0111018 17.9669C-0.246695 12.4501 4.01659 7.76884 9.53342 7.51105L170.033 0.0110484C175.11 -0.226185 179.557 3.3823 180.371 8.39904C180.407 8.62106 180.436 8.8427 180.457 9.0637L194.429 7.55773C199.92 6.96588 204.851 10.9375 205.443 16.4285C206.034 21.9196 202.063 26.8507 196.572 27.4426L113.072 36.4426C107.903 36.9997 103.17 33.5037 102.182 28.3999C101.834 26.5987 101.993 24.8093 102.564 23.1856Z" fill="#CAF6E6"/>
</svg>
