<svg width="50" height="50" viewBox="0 0 50 50" fill="none" xmlns="http://www.w3.org/2000/svg">
<rect width="50" height="50" rx="6" fill="#24A1DD"/>
<path fill-rule="evenodd" clip-rule="evenodd" d="M11.8664 24.6861C19.1544 21.5108 24.0142 19.4175 26.4459 18.4061C33.3886 15.5184 34.8313 15.0167 35.7716 15.0002C35.9784 14.9965 36.4408 15.0478 36.7403 15.2908C36.9932 15.4961 37.0628 15.7733 37.0961 15.9679C37.1294 16.1624 37.1709 16.6057 37.1379 16.952C36.7617 20.9051 35.1338 30.4982 34.3056 34.9258C33.9551 36.7992 33.2651 37.4274 32.597 37.4889C31.1452 37.6225 30.0428 36.5294 28.6367 35.6077C26.4363 34.1653 25.1933 33.2675 23.0575 31.86C20.5892 30.2334 22.1893 29.3395 23.596 27.8784C23.9641 27.4961 30.3608 21.6778 30.4846 21.15C30.5 21.084 30.5144 20.838 30.3682 20.708C30.2221 20.5781 30.0063 20.6225 29.8506 20.6579C29.6299 20.7079 26.1149 23.0313 19.3055 27.6278C18.3077 28.3129 17.404 28.6467 16.5943 28.6293C15.7017 28.61 13.9846 28.1245 12.7082 27.7096C11.1426 27.2007 9.89822 26.9316 10.0066 26.0673C10.063 25.6171 10.683 25.1567 11.8664 24.6861Z" fill="white"/>
</svg>


