<svg width="50" height="50" viewBox="0 0 50 50" fill="none" xmlns="http://www.w3.org/2000/svg">
<rect width="50" height="50" rx="6" fill="#2984F1"/>
<path d="M41.4033 32.3033C41.3627 32.2156 41.3247 32.143 41.2895 32.0847C40.7069 31.0354 39.5935 29.7474 37.95 28.2204L37.9153 28.1854L37.8979 28.1682L37.8803 28.1507H37.8627C37.1168 27.4396 36.6444 26.9615 36.4466 26.7167C36.0847 26.2505 36.0036 25.7785 36.2014 25.3003C36.3412 24.939 36.8661 24.1759 37.775 23.0101C38.2531 22.3922 38.6318 21.897 38.9114 21.524C40.9281 18.8429 41.8024 17.1297 41.5342 16.3836L41.43 16.2092C41.36 16.1043 41.1794 16.0082 40.8883 15.9207C40.5965 15.8333 40.2237 15.8188 39.7689 15.8771L34.7336 15.9118C34.652 15.8829 34.5355 15.8856 34.3838 15.9207C34.2322 15.9557 34.1564 15.9733 34.1564 15.9733L34.0687 16.017L33.9992 16.0697C33.9409 16.1044 33.8768 16.1656 33.8068 16.2531C33.7371 16.3402 33.6789 16.4425 33.6324 16.559C33.0841 17.9694 32.4608 19.2808 31.7613 20.4929C31.33 21.2158 30.9339 21.8422 30.5721 22.3726C30.2109 22.9028 29.9078 23.2934 29.6632 23.5438C29.4183 23.7945 29.1972 23.9953 28.9986 24.147C28.8004 24.2988 28.6491 24.3629 28.5443 24.3394C28.4393 24.316 28.3404 24.2927 28.2467 24.2694C28.0837 24.1645 27.9525 24.0217 27.8536 23.841C27.7542 23.6604 27.6874 23.433 27.6524 23.1591C27.6176 22.885 27.597 22.6492 27.5912 22.451C27.5857 22.253 27.5882 21.9729 27.6 21.6116C27.6122 21.2501 27.6176 21.0055 27.6176 20.8773C27.6176 20.4343 27.6263 19.9535 27.6436 19.4348C27.6612 18.9161 27.6755 18.5051 27.6874 18.2023C27.6993 17.8993 27.7048 17.5786 27.7048 17.2406C27.7048 16.9025 27.6843 16.6374 27.6436 16.445C27.6034 16.2528 27.5417 16.0663 27.4605 15.8854C27.3787 15.7048 27.2591 15.565 27.102 15.4658C26.9447 15.3667 26.7491 15.2881 26.5163 15.2297C25.8985 15.0899 25.1118 15.0142 24.1557 15.0025C21.9878 14.9792 20.5948 15.1192 19.977 15.4223C19.7322 15.5503 19.5107 15.7253 19.3126 15.9466C19.1028 16.2032 19.0735 16.3432 19.225 16.3662C19.9245 16.471 20.4197 16.7216 20.7111 17.1179L20.8161 17.3279C20.8978 17.4794 20.9794 17.7476 21.061 18.1322C21.1426 18.5168 21.1952 18.9422 21.2183 19.4083C21.2765 20.2593 21.2765 20.9878 21.2183 21.5939C21.1599 22.2001 21.1048 22.6721 21.0522 23.0101C20.9996 23.3482 20.921 23.6221 20.8161 23.8319C20.7111 24.0417 20.6412 24.1699 20.6062 24.2164C20.5712 24.263 20.5421 24.2923 20.5189 24.3038C20.3674 24.3619 20.2099 24.3915 20.0468 24.3915C19.8835 24.3915 19.6854 24.3098 19.4523 24.1465C19.2193 23.9832 18.9775 23.759 18.7268 23.4734C18.4762 23.1877 18.1935 22.7885 17.8787 22.2756C17.5641 21.7628 17.2377 21.1567 16.8996 20.4574L16.6199 19.9502C16.4451 19.6239 16.2063 19.1488 15.9032 18.5253C15.5999 17.9016 15.3319 17.2982 15.0989 16.7154C15.0057 16.4707 14.8658 16.2843 14.6793 16.1561L14.5918 16.1035C14.5336 16.0569 14.4402 16.0075 14.3121 15.9548C14.1838 15.9022 14.0499 15.8645 13.9099 15.8413L9.11922 15.8761C8.62967 15.8761 8.2975 15.987 8.1226 16.2085L8.0526 16.3133C8.01764 16.3716 8 16.4648 8 16.5931C8 16.7214 8.03497 16.8788 8.10497 17.0651C8.80432 18.7088 9.56486 20.294 10.3866 21.8209C11.2083 23.3479 11.9223 24.5779 12.5283 25.5098C13.1344 26.4425 13.7522 27.3226 14.3817 28.15C15.0112 28.9777 15.4278 29.5081 15.6317 29.7411C15.8358 29.9745 15.9961 30.149 16.1127 30.2656L16.5499 30.6851C16.8296 30.9649 17.2404 31.3001 17.7824 31.6905C18.3246 32.0811 18.9248 32.4657 19.5834 32.8448C20.2421 33.2234 21.0084 33.5322 21.8827 33.7711C22.7569 34.0103 23.6078 34.1062 24.4354 34.0599H26.4462C26.854 34.0247 27.1629 33.8965 27.3729 33.6752L27.4425 33.5875C27.4893 33.518 27.5331 33.4099 27.5735 33.2644C27.6144 33.1188 27.6347 32.9582 27.6347 32.7836C27.6228 32.2825 27.6609 31.8309 27.7481 31.4288C27.8353 31.0268 27.9346 30.7237 28.0457 30.5196C28.1567 30.3157 28.282 30.1436 28.4215 30.0041C28.5612 29.8643 28.6608 29.7796 28.7192 29.7504C28.7773 29.7211 28.8236 29.7012 28.8586 29.6893C29.1383 29.5961 29.4676 29.6863 29.8468 29.9605C30.2256 30.2344 30.581 30.5726 30.9134 30.9746C31.2457 31.377 31.6448 31.8284 32.111 32.3295C32.5774 32.8308 32.9853 33.2034 33.3349 33.4486L33.6844 33.6584C33.9179 33.7984 34.2209 33.9266 34.594 34.0432C34.9664 34.1596 35.2927 34.1888 35.5729 34.1306L40.0487 34.0607C40.4914 34.0607 40.8359 33.9874 41.0802 33.842C41.3251 33.6963 41.4705 33.5358 41.5174 33.3612C41.5642 33.1864 41.5667 32.9881 41.5263 32.7664C41.4848 32.5453 41.444 32.3907 41.4033 32.3033Z" fill="white"/>
</svg>

