<svg width="30" height="10" viewBox="0 0 30 10" fill="none" xmlns="http://www.w3.org/2000/svg">
<path d="M7.17478 7.9846C7.0815 7.73314 6.96382 7.47494 6.82176 7.21002C6.67886 6.92911 6.47376 6.5313 6.20646 6.01658C6.06524 5.76763 5.95848 5.56494 5.8862 5.40851C5.64408 5.06872 5.42468 4.7037 5.22798 4.31346C5.01615 3.94003 4.85937 3.69991 4.75764 3.59309C4.67188 3.48543 4.55836 3.45933 4.41707 3.5148C4.07225 3.66105 3.66768 4.04275 3.20334 4.65989C2.75414 5.26023 2.33223 6.07542 1.9376 7.10549C1.70868 7.93461 1.41846 8.35838 1.06694 8.3768C1.00303 8.38015 0.905483 8.35322 0.774309 8.296C0.674254 8.22114 0.620039 8.10381 0.611665 7.94403C0.599105 7.70436 0.695075 7.24271 0.899577 6.55907L1.26306 5.69886C1.46163 5.2078 1.65092 4.8454 1.83093 4.61165C2.12119 4.03567 2.59519 3.45006 3.25294 2.85482C3.91069 2.25958 4.4725 1.97379 4.93837 1.99744C5.21168 2.01516 5.59589 2.46767 6.091 3.35498C6.58528 4.2263 7.1388 5.31082 7.75156 6.60853L8.07433 7.26454C8.12729 7.35789 8.15628 7.4525 8.16131 7.54837C8.17135 7.74011 8.10824 7.91165 7.97198 8.06299C7.85169 8.21349 7.71166 8.29293 7.55188 8.3013C7.36014 8.31135 7.23444 8.20578 7.17478 7.9846ZM16.9421 9.87601C16.6066 9.8936 16.2921 9.854 15.9986 9.75723C15.7051 9.66046 15.3848 9.50901 15.0375 9.30291C14.9055 9.22971 14.7066 9.10395 14.4409 8.92561C14.1744 8.73129 13.9028 8.59332 13.6261 8.51169C13.5286 8.48475 13.4479 8.47296 13.384 8.47631C13.2402 8.48385 13.114 8.5225 13.0055 8.59228C12.913 8.66121 12.7751 8.7806 12.5917 8.95043C12.3192 9.2531 12.0795 9.41788 11.8726 9.44474C11.8465 9.55826 11.7725 9.67429 11.6505 9.79284C11.5445 9.91055 11.4655 9.93071 11.4133 9.85333C11.2351 9.81461 11.0871 9.74226 10.9694 9.63627C10.8517 9.53029 10.7983 9.42894 10.8092 9.33224C10.8152 9.13966 11.0086 8.85715 11.3897 8.4847C11.7858 8.09543 12.3363 7.74614 13.0411 7.43683C13.1042 7.4175 13.1996 7.40449 13.3274 7.39779C13.631 7.38188 13.938 7.42988 14.2482 7.5418C14.5577 7.63773 14.8301 7.79169 15.0655 8.00366C15.4002 8.27452 15.6831 8.47598 15.9143 8.60806C16.1615 8.73931 16.397 8.79906 16.6207 8.78734C16.7006 8.78315 16.8347 8.74408 17.0231 8.67012C17.1501 8.64744 17.3313 8.58988 17.5668 8.49743C17.8183 8.40414 18.0062 8.32219 18.1307 8.25158L18.7451 8.05115C18.8183 7.91914 18.9104 7.84221 19.0214 7.82037C19.0348 7.7716 19.145 7.73378 19.3519 7.70692L19.5651 7.64768C19.7728 7.6368 19.8531 7.79281 19.8059 8.11572C19.8143 8.2755 19.6986 8.51388 19.4588 8.83086L18.9908 9.07169C18.7856 9.13051 18.543 9.23936 18.2629 9.39823C17.998 9.54029 17.8108 9.63822 17.7015 9.69202C17.4189 9.80296 17.1658 9.86429 16.9421 9.87601ZM28.5673 6.86347C28.474 6.612 28.3563 6.35381 28.2143 6.08888C28.0714 5.80797 27.8663 5.41016 27.599 4.89545C27.4578 4.6465 27.351 4.44381 27.2787 4.28738C27.0366 3.94758 26.8172 3.58256 26.6205 3.19232C26.4087 2.8189 26.2519 2.57877 26.1502 2.47195C26.0644 2.36429 25.9509 2.3382 25.8096 2.39367C25.4648 2.53992 25.0602 2.92161 24.5959 3.53876C24.1467 4.13909 23.7247 4.95429 23.3301 5.98436C23.1012 6.81347 22.811 7.23724 22.4595 7.25566C22.3955 7.25901 22.298 7.23208 22.1668 7.17487C22.0668 7.1 22.0126 6.98268 22.0042 6.8229C21.9916 6.58323 22.0876 6.12157 22.2921 5.43793L22.6556 4.57773C22.8541 4.08667 23.0434 3.72426 23.2235 3.49052C23.5137 2.91454 23.9877 2.32893 24.6455 1.73369C25.3032 1.13845 25.865 0.852656 26.3309 0.876306C26.6042 0.894027 26.9884 1.34654 27.4835 2.23384C27.9778 3.10517 28.5313 4.18969 29.1441 5.48739L29.4668 6.1434C29.5198 6.23676 29.5488 6.33137 29.5538 6.42724C29.5639 6.61898 29.5008 6.79051 29.3645 6.94185C29.2442 7.09235 29.1042 7.17179 28.9444 7.18017C28.7527 7.19021 28.627 7.08465 28.5673 6.86347Z" fill="#FF53CE"/>
</svg>
